<svg width="22" height="23" viewBox="0 0 22 23" fill="none" xmlns="http://www.w3.org/2000/svg">
<path d="M11 5.30469C9.22396 5.30469 7.71289 5.92773 6.4668 7.17383C5.2207 8.41992 4.59766 9.93099 4.59766 11.707C4.59766 13.4831 5.2207 14.9941 6.4668 16.2402C7.71289 17.4863 9.22396 18.1094 11 18.1094C12.776 18.1094 14.2871 17.4863 15.5332 16.2402C16.7793 14.9941 17.4023 13.4831 17.4023 11.707C17.4023 9.93099 16.7793 8.41992 15.5332 7.17383C14.2871 5.92773 12.776 5.30469 11 5.30469ZM11 16.3047C9.71094 16.3047 8.6224 15.8607 7.73438 14.9727C6.84635 14.0846 6.40234 12.9961 6.40234 11.707C6.40234 10.418 6.84635 9.32943 7.73438 8.44141C8.6224 7.55339 9.71094 7.10938 11 7.10938C12.2891 7.10938 13.3776 7.55339 14.2656 8.44141C15.1536 9.32943 15.5977 10.418 15.5977 11.707C15.5977 12.9961 15.1536 14.0846 14.2656 14.9727C13.3776 15.8607 12.2891 16.3047 11 16.3047ZM11.9023 3.45703V1.60938C11.9023 1.00781 11.6016 0.707031 11 0.707031C10.3984 0.707031 10.0977 1.00781 10.0977 1.60938V3.45703C10.0977 4.05859 10.3984 4.35938 11 4.35938C11.6016 4.35938 11.9023 4.05859 11.9023 3.45703ZM3.65234 11.707C3.65234 11.1055 3.35156 10.8047 2.75 10.8047H0.902344C0.300781 10.8047 0 11.1055 0 11.707C0 12.3086 0.300781 12.6094 0.902344 12.6094H2.75C3.35156 12.6094 3.65234 12.3086 3.65234 11.707ZM21.0977 10.8047H19.25C18.6484 10.8047 18.3477 11.1055 18.3477 11.707C18.3477 12.3086 18.6484 12.6094 19.25 12.6094H21.0977C21.6992 12.6094 22 12.3086 22 11.707C22 11.1055 21.6992 10.8047 21.0977 10.8047ZM11 19.0547C10.3984 19.0547 10.0977 19.3555 10.0977 19.957V21.8047C10.0977 22.4062 10.3984 22.707 11 22.707C11.6016 22.707 11.9023 22.4062 11.9023 21.8047V19.957C11.9023 19.3555 11.6016 19.0547 11 19.0547ZM18.0469 5.94922L18.9922 5.00391C19.3932 4.60286 19.3932 4.17318 18.9922 3.71484C18.5339 3.3138 18.1042 3.3138 17.7031 3.71484L16.7578 4.66016C16.3568 5.0612 16.3568 5.49089 16.7578 5.94922C16.987 6.12109 17.2018 6.20703 17.4023 6.20703C17.6602 6.20703 17.875 6.12109 18.0469 5.94922ZM4.59766 6.20703C4.79818 6.20703 5.01302 6.12109 5.24219 5.94922C5.64323 5.49089 5.64323 5.0612 5.24219 4.66016L4.29688 3.71484C3.89583 3.3138 3.46615 3.3138 3.00781 3.71484C2.60677 4.17318 2.60677 4.60286 3.00781 5.00391L3.95312 5.94922C4.125 6.12109 4.33984 6.20703 4.59766 6.20703ZM18.0469 17.4648C17.6458 17.0638 17.2161 17.0638 16.7578 17.4648C16.3568 17.9232 16.3568 18.3529 16.7578 18.7539L17.7031 19.6992C17.875 19.8711 18.0898 19.957 18.3477 19.957C18.5482 19.957 18.763 19.8711 18.9922 19.6992C19.3932 19.2409 19.3932 18.8112 18.9922 18.4102L18.0469 17.4648ZM3.95312 17.4648L3.00781 18.4102C2.60677 18.8112 2.60677 19.2409 3.00781 19.6992C3.23698 19.8711 3.45182 19.957 3.65234 19.957C3.91016 19.957 4.125 19.8711 4.29688 19.6992L5.24219 18.7539C5.64323 18.3529 5.64323 17.9232 5.24219 17.4648C4.78385 17.0638 4.35417 17.0638 3.95312 17.4648Z" fill="black"/>
</svg>
