<svg width="18" height="18" viewBox="0 0 18 18" fill="none" xmlns="http://www.w3.org/2000/svg">
<path d="M5.25007 4.725C5.4334 4.94167 5.52507 5.18733 5.52507 5.462C5.52507 5.73666 5.4334 5.966 5.25007 6.15L3.40007 8H10.5751C10.8584 8 11.0961 8.096 11.2881 8.288C11.4801 8.48 11.5757 8.71733 11.5751 9C11.5751 9.28333 11.4791 9.521 11.2871 9.713C11.0951 9.905 10.8577 10.0007 10.5751 10H3.40007L5.25007 11.85C5.45007 12.05 5.55007 12.2877 5.55007 12.563C5.55007 12.8383 5.45007 13.0757 5.25007 13.275C5.06674 13.475 4.8374 13.575 4.56207 13.575C4.28674 13.575 4.05774 13.4833 3.87507 13.3L0.275072 9.7C0.175072 9.6 0.104071 9.49166 0.0620708 9.375C0.0200708 9.25833 -0.000596095 9.13333 7.05719e-05 9C7.05719e-05 8.86666 0.0207375 8.74166 0.0620708 8.625C0.103404 8.50833 0.174405 8.4 0.275072 8.3L3.87507 4.7C4.09174 4.48333 4.3294 4.38733 4.58807 4.412C4.84674 4.43667 5.0674 4.541 5.25007 4.725ZM15.5751 -1.90735e-06C16.1251 -1.90735e-06 16.5961 0.195997 16.9881 0.587997C17.3801 0.979997 17.5757 1.45066 17.5751 2V16C17.5751 16.55 17.3791 17.021 16.9871 17.413C16.5951 17.805 16.1244 18.0007 15.5751 18H9.57507C9.29174 18 9.05407 17.904 8.86207 17.712C8.67007 17.52 8.5744 17.2827 8.57507 17C8.57507 16.7167 8.67107 16.479 8.86307 16.287C9.05507 16.095 9.2924 15.9993 9.57507 16H15.5751V2H9.57507C9.29174 2 9.05407 1.904 8.86207 1.712C8.67007 1.52 8.5744 1.28266 8.57507 0.999998C8.57507 0.716665 8.67107 0.478999 8.86307 0.286999C9.05507 0.0949987 9.2924 -0.000668574 9.57507 -1.90735e-06H15.5751Z" fill="black"/>
</svg>
