<svg width="17" height="17" viewBox="0 0 17 17" fill="none" xmlns="http://www.w3.org/2000/svg">
<path d="M13.8295 10.4275H13.8352C14.2913 10.4275 14.7383 10.3857 15.1711 10.3057L15.1265 10.3127C14.3147 13.2325 11.6797 15.3405 8.55242 15.3405H8.51133H8.51346C4.72883 15.3362 1.66175 12.2692 1.65821 8.48453C1.66708 6.99552 2.15648 5.54845 3.05358 4.35998C3.95067 3.17151 5.20752 2.30445 6.63708 1.88782L6.68596 1.87578C6.60854 2.30088 6.57013 2.73215 6.57121 3.16424V3.1692C6.57475 7.17695 9.82246 10.4247 13.8295 10.4282V10.4275ZM8.50425 0.333031C8.41988 0.219175 8.30754 0.129031 8.17811 0.0713274C8.04868 0.0136235 7.90654 -0.00968574 7.76546 0.00365642H7.769C3.40921 0.422281 0.0240833 4.05461 0 8.48311V8.48524C0.00566667 13.185 3.81438 16.9937 8.51346 17.0001H8.55667C12.9788 17.0001 16.6083 13.61 16.9894 9.28707L16.9915 9.2552C17.0037 9.12066 16.9828 8.98518 16.9305 8.86059C16.8783 8.73601 16.7964 8.6261 16.6919 8.54049L16.6905 8.53907C16.585 8.45229 16.4596 8.39308 16.3256 8.36674C16.1916 8.34041 16.0531 8.34778 15.9226 8.3882L15.9283 8.38678L15.5571 8.49728C15.0005 8.67981 14.4181 8.77188 13.8323 8.76999H13.8274C12.3432 8.7683 10.9203 8.17798 9.87088 7.12852C8.82143 6.07907 8.2311 4.65618 8.22942 3.17203V3.15928C8.22942 2.4297 8.36967 1.7327 8.62467 1.09449L8.61121 1.13203C8.6633 0.999962 8.68057 0.856716 8.66134 0.716051C8.64211 0.575385 8.58704 0.442026 8.50142 0.328781L8.50283 0.330906L8.50425 0.333031Z" fill="black"/>
</svg>
