<svg width="15" height="21" viewBox="0 0 15 21" fill="none" xmlns="http://www.w3.org/2000/svg">
<path d="M13.997 11.2218L12.7554 18.6717C12.7 19.0134 12.5238 19.3238 12.2588 19.5464C11.9938 19.769 11.6576 19.889 11.3116 19.8845H3.67397C3.32791 19.889 2.99177 19.769 2.72676 19.5464C2.46176 19.3238 2.28554 19.0134 2.23019 18.6717L1.00298 11.2218H13.997ZM3.16865 1.38965C2.49199 1.90969 1.94451 2.57893 1.56887 3.34523C1.19323 4.11154 0.999574 4.95421 1.00298 5.80762C0.956211 7.19539 1.46209 8.545 2.40952 9.56012C3.35696 10.5752 4.66852 11.1729 6.05622 11.2218C6.51608 11.2215 6.97338 11.1534 7.41337 11.0197L3.16865 1.38965ZM11.8313 1.38965C12.508 1.90969 13.0555 2.57893 13.4311 3.34523C13.8068 4.11154 14.0004 4.95421 13.997 5.80762C14.0438 7.19539 13.5379 8.545 12.5905 9.56012C11.643 10.5752 10.3315 11.1729 8.94378 11.2218C8.48392 11.2215 8.02662 11.1534 7.58663 11.0197L11.8313 1.38965Z" stroke="black" stroke-width="1.5" stroke-linecap="round" stroke-linejoin="round"/>
<path d="M4.61243 4.72481L7.49999 1.11536L10.3876 4.72481" stroke="black" stroke-width="1.5" stroke-linecap="round" stroke-linejoin="round"/>
</svg>
